<?xml version="1.0" encoding="utf-8"?>
<!-- Generator: Adobe Illustrator 19.0.0, SVG Export Plug-In . SVG Version: 6.00 Build 0)  -->
<svg version="1.1" id="Layer_1" xmlns="http://www.w3.org/2000/svg" xmlns:xlink="http://www.w3.org/1999/xlink" x="0px" y="0px"
	 viewBox="0 0 2000 2000" style="enable-background:new 0 0 2000 2000;" xml:space="preserve">
<style type="text/css">
	.st0{fill:#EEF2D9;}
	.st1{fill:#8BA372;}
	.st2{fill:#514347;}
	.st3{fill:#A7A9AC;}
	.st4{fill:#6F853B;}
	.st5{fill:#4BA357;}
	.st6{fill:#2C3793;}
</style>
<g id="XMLID_2_">
	<path id="XMLID_7210_" class="st0" d="M1290.5,947.3c0-3,0-5.9,0-8.9C1296.4,941.4,1294.2,944.4,1290.5,947.3z"/>
	<path id="XMLID_7208_" class="st1" d="M1291,933.3c0.6-1.1,1.2-2.3,1.7-3.4c3.1,7.3,1.6,14.8,1.2,22.3c-0.4-1.1-0.8-2.3-1.2-3.4
		C1289,944,1290,938.7,1291,933.3z"/>
	<path id="XMLID_7204_" class="st2" d="M1292,1123c1.7,3.7,1.4,5.8,0.8,8.4C1290.5,1129.2,1291.8,1127,1292,1123z"/>
	<path id="XMLID_6_" class="st3" d="M343.1,843c0,0-94.9,105.1-42.3,175.2c0,0-44,85.8-32,104.9c0,0-85.9-92.7-7.4-226.1
		C261.5,897,319.3,841,343.1,843z"/>
	<path id="XMLID_5_" class="st4" d="M501.4,870.2c-0.5-0.9-1-1.9-1.5-2.8c-0.6-1.1-1.3-2.2-2-3.2c-0.8-1.2-1.6-2.4-2.4-3.5
		c-25.1-34.5-71.7-39.4-110.6-31c-16.6,3.6-32.6,9.5-48,16.7c-30.3,14.2-68.1,40.5-93.2,91.3c0,0,12.6-122.3,155.3-137.7
		c16-1.7,32.5-1.1,48.2,3.1c16,4.3,31,12.5,41.6,25.4c5.9,7.3,10.2,15.9,12.9,24.9c1.6,5.4,3.6,11,4.2,16.6
		c0.3,3.1,0.1,7.6,0.2,10.8c0,0.3-0.1,0.5-0.3,0.3c-0.3-0.3-0.5-1-0.6-1.4C504.5,878.3,502.1,871.8,501.4,870.2z"/>
	<path id="XMLID_8_" class="st3" d="M352.1,1093.4c0,0-6.7,24.7,62,34.7c36.5,5.3,73.3,6.9,110,10.2c26.1,2.3,48.9,20.7,54.5,46.8
		c1.1,4.9,4.4,22.5-0.3,24.5c0,0-70.1,91.6-191.5,20.9c0,0-91.8-40.4-47.1-144.1L352.1,1093.4z"/>
	<path id="XMLID_1_" class="st4" d="M673.7,936.2c-4.6,15.6-15.5,30.3-26.3,42c-9.8,10.7-21.1,20-33.4,27.5
		c-13.5,8.3-28.4,15.2-44.1,18.6c-17.3,3.8-35.1,5.1-52.5,8.3c-33.7,6.1-67.5,13.7-99.9,24.9c-13,4.5-25.9,9.6-38.1,16.1
		c-5.4,2.8-10.6,6-15.5,9.5c-1.1,0.8-11.6,10.3-11.8,10.2c0,0-17-7.8-17-7.8s31.2-60,124.6-68.7C459.7,1016.9,655,998.8,673.7,936.2
		z"/>
	<path id="XMLID_25_" class="st5" d="M531.4,1012.1c70.3-6.1,160.5-45.4,156.9-128C682.7,754.7,522.1,697,412.6,718.5
		c-137,26.9-236.1,153.2-241.6,289.5c-1,24.6,0.9,49.4,6.2,73.4c6,27,16.5,52.9,31.2,76.3c17.4,27.7,40.4,51.5,66.6,71.1
		c14.5,10.9,29.9,20.5,45.9,29c14,7.5,28.9,14.4,44.3,19c16.6,4.9,33.7,6.6,50.9,7.9c27.7,2.1,56.1,2,83.4-3.6
		c25.7-5.2,52.4-16.1,67.7-38.6c6.9-10.1,11.6-23.4,13.1-35.4c-0.1,1.5-8.5,6.8-9.7,7.6c-7.8,5.1-16,9.7-24.4,13.8
		c-24.8,12.3-51.9,20.9-79.7,22c-48.2,2-91.1-22.7-120.1-60.2c-8.1-10.5-14.5-22.7-16.5-35.9c-1.8-11.7-1.7-23.8,0.6-35.5
		c3.1-16.1,10.3-31,20.8-43.6c15-18,35.6-30.5,57.1-39.4c34.6-14.3,72.4-20.2,109.5-23C522.2,1012.6,526.8,1012.5,531.4,1012.1z
		 M328,989.1c-14.5,12.2-26.6,27.2-36.9,44c-12.1,19.6-21.2,41.8-23.3,64.9c-0.5,5-2.8,20.6,1.1,25c-54.7-62.5-44.6-157.5-7.4-226.1
		c19.5-35.9,51.3-66.3,88.7-82.8c37.2-16.4,82.7-17.8,117.7,5c17.1,11.2,33.2,28.5,36.6,49.4c11.9,74.3-94.4,80.3-141,99.1
		C350.2,973.1,338.5,980.4,328,989.1z"/>
	<g id="XMLID_16_">
		<g id="XMLID_192_">
			<path id="XMLID_206_" class="st5" d="M879.6,1000H755.4c0-55.2,0-110.7,0-166h124.3v30.4h-93.2v38.2h89.9v29.2h-89.9v37.5h93.2
				V1000z"/>
			<path id="XMLID_204_" class="st5" d="M996.5,1000.7H964L895,834h35.1l50,129.2l50.3-129.2h35.1L996.5,1000.7z"/>
			<path id="XMLID_202_" class="st5" d="M1208.5,1000h-124.3c0-55.2,0-110.7,0-166h124.3v30.4h-93.2v38.2h89.9v29.2h-89.9v37.5h93.2
				V1000z"/>
			<path id="XMLID_199_" class="st5" d="M1379.9,1000h-37.2l-48.4-55.5h-30.1v55.5h-31.3V833.8c26.3,0,52.6,0.2,79,0.2
				c39.1,0.2,59.8,26.3,59.8,55c0,22.8-10.4,45.8-42,52.2l50.3,56.7V1000z M1264.2,863.2v53.1h47.7c19.9,0,28.5-13.3,28.5-26.6
				s-8.8-26.6-28.5-26.6H1264.2z"/>
			<path id="XMLID_197_" class="st5" d="M1516.5,1000h-124.3c0-55.2,0-110.7,0-166h124.3v30.4h-93.2v38.2h89.9v29.2h-89.9v37.5h93.2
				V1000z"/>
			<path id="XMLID_195_" class="st5" d="M1648.1,874.1c-5.7-9.5-21.3-18.5-39.4-18.5c-23.2,0-34.4,9.7-34.4,22.1
				c0,14.5,17.1,18.5,37,20.9c34.6,4.3,66.9,13.3,66.9,52.9c0,37-32.7,52.9-69.7,52.9c-33.9,0-60-10.4-72.3-40.8l26.1-13.5
				c7.4,18.3,26.6,26.3,46.7,26.3c19.7,0,38.2-6.9,38.2-24.9c0-15.6-16.4-22.1-38.4-24.4c-33.9-4-65.2-13-65.2-50.3
				c0-34.1,33.7-48.1,64.3-48.4c25.8,0,52.6,7.4,65.2,33L1648.1,874.1z"/>
			<path id="XMLID_193_" class="st5" d="M1745.3,862.5h-52.6V834c47.9,0,88.4,0,136.6,0v28.5h-52.6V1000h-31.3V862.5z"/>
		</g>
	</g>
	<g id="XMLID_17_">
		<g id="XMLID_279_">
			<path id="XMLID_303_" class="st6" d="M861.3,1048.7v5.4h-13.9v-5.4c0-0.8-0.3-1.4-0.8-2c-0.6-0.6-1.2-0.8-2-0.8h-59
				c-0.8,0-1.4,0.3-2,0.8c-0.6,0.6-0.8,1.2-0.8,2v19.8c0,0.8,0.3,1.4,0.8,2c0.6,0.6,1.2,0.8,2,0.8h59c4.6,0,8.6,1.6,11.8,4.9
				c3.2,3.3,4.9,7.2,4.9,11.8v19.8c0,4.6-1.6,8.6-4.9,11.8c-3.3,3.3-7.2,4.9-11.8,4.9h-59c-4.6,0-8.6-1.6-11.8-4.9
				c-3.3-3.3-4.9-7.2-4.9-11.8v-5.4h13.9v5.4c0,0.8,0.3,1.4,0.8,2c0.6,0.6,1.2,0.8,2,0.8h59c0.8,0,1.4-0.3,2-0.8
				c0.6-0.6,0.8-1.2,0.8-2V1088c0-0.8-0.3-1.4-0.8-2c-0.6-0.6-1.2-0.8-2-0.8h-59c-4.6,0-8.6-1.6-11.8-4.9c-3.3-3.2-4.9-7.2-4.9-11.8
				v-19.8c0-4.6,1.6-8.6,4.9-11.8c3.2-3.2,7.2-4.9,11.8-4.9h59c4.6,0,8.6,1.6,11.8,4.9C859.7,1040.2,861.3,1044.1,861.3,1048.7z"/>
			<path id="XMLID_301_" class="st6" d="M967.1,1045.9h-75.4c-0.8,0-1.4,0.3-2,0.8c-0.6,0.6-0.8,1.2-0.8,2v59c0,0.8,0.3,1.4,0.8,2
				c0.6,0.6,1.2,0.8,2,0.8h75.4v13.9h-75.4c-4.6,0-8.6-1.6-11.8-4.9c-3.3-3.3-4.9-7.2-4.9-11.8v-59c0-4.6,1.6-8.6,4.9-11.8
				c3.2-3.2,7.2-4.9,11.8-4.9h75.4V1045.9z"/>
			<path id="XMLID_298_" class="st6" d="M997.4,1032h59c4.6,0,8.6,1.6,11.8,4.9c3.3,3.3,4.9,7.2,4.9,11.8v75.7h-13.9v-32.3h-64.7
				v32.3h-13.9v-75.7c0-4.6,1.6-8.6,4.9-11.8C988.9,1033.7,992.8,1032,997.4,1032z M994.6,1078.2h64.7v-29.5c0-0.8-0.3-1.4-0.8-2
				c-0.6-0.6-1.2-0.8-2-0.8h-59c-0.8,0-1.4,0.3-2,0.8c-0.6,0.6-0.8,1.2-0.8,2V1078.2z"/>
			<path id="XMLID_296_" class="st6" d="M1088,1032h84.7v13.9h-70.8v25.4h57v13.9h-57v39.3H1088V1032z"/>
			<path id="XMLID_294_" class="st6" d="M1180.7,1032h84.7v13.9h-70.8v25.4h57v13.9h-57v39.3h-13.9V1032z"/>
			<path id="XMLID_291_" class="st6" d="M1289.7,1032h59c4.6,0,8.6,1.6,11.8,4.9c3.3,3.3,4.9,7.2,4.9,11.8v59
				c0,4.6-1.6,8.6-4.9,11.8c-3.3,3.3-7.2,4.9-11.8,4.9h-59c-4.6,0-8.6-1.6-11.8-4.9c-3.3-3.3-4.9-7.2-4.9-11.8v-59
				c0-4.6,1.6-8.6,4.9-11.8C1281.1,1033.7,1285,1032,1289.7,1032z M1289.7,1110.5h59c0.8,0,1.4-0.3,2-0.8c0.6-0.6,0.8-1.2,0.8-2v-59
				c0-0.8-0.3-1.4-0.8-2c-0.6-0.6-1.2-0.8-2-0.8h-59c-0.8,0-1.4,0.3-2,0.8c-0.6,0.6-0.8,1.2-0.8,2v59c0,0.8,0.3,1.4,0.8,2
				C1288.2,1110.3,1288.9,1110.5,1289.7,1110.5z"/>
			<path id="XMLID_289_" class="st6" d="M1379.6,1124.4v-92.5h13.9v78.6h78.5v13.9H1379.6z"/>
			<path id="XMLID_286_" class="st6" d="M1479.7,1032h75.7c4.6,0,8.6,1.6,11.8,4.9c3.2,3.3,4.9,7.2,4.9,11.8v59
				c0,4.6-1.6,8.6-4.9,11.8c-3.3,3.3-7.2,4.9-11.8,4.9h-75.7V1032z M1558.2,1107.7v-59c0-0.8-0.3-1.4-0.8-2c-0.6-0.6-1.2-0.8-2-0.8
				h-59c-0.8,0-1.4,0.3-2,0.8c-0.6,0.6-0.8,1.2-0.8,2v59c0,0.8,0.3,1.4,0.8,2c0.6,0.6,1.2,0.8,2,0.8h59c0.8,0,1.4-0.3,2-0.8
				C1557.9,1109.2,1558.2,1108.5,1558.2,1107.7z"/>
			<path id="XMLID_284_" class="st6" d="M1586.5,1124.4V1032h13.9v92.4H1586.5z"/>
			<path id="XMLID_282_" class="st6" d="M1693.1,1105.9V1032h13.9v92.4h-16.4l-62.1-73.9v73.9h-13.9V1032h16.4L1693.1,1105.9z"/>
			<path id="XMLID_280_" class="st6" d="M1813.7,1048.7v5.5h-13.9v-5.5c0-0.8-0.3-1.4-0.8-2c-0.6-0.6-1.2-0.8-2-0.8h-59
				c-0.8,0-1.4,0.3-2,0.8c-0.6,0.6-0.8,1.2-0.8,2v59c0,0.8,0.3,1.4,0.8,2c0.6,0.6,1.2,0.8,2,0.8h59c0.8,0,1.4-0.3,2-0.8
				c0.6-0.6,0.8-1.2,0.8-2v-20h-21.8v-13.9h35.7v33.9c0,4.6-1.6,8.6-4.9,11.8c-3.3,3.3-7.2,4.9-11.8,4.9h-59
				c-4.6,0-8.6-1.6-11.8-4.9c-3.3-3.3-4.9-7.2-4.9-11.8v-59c0-4.6,1.6-8.6,4.9-11.8c3.3-3.2,7.2-4.9,11.8-4.9h59
				c4.6,0,8.6,1.6,11.8,4.9C1812.1,1040.2,1813.7,1044.1,1813.7,1048.7z"/>
		</g>
	</g>
</g>
</svg>
